<svg width="24" height="24" viewBox="0 0 24 24" fill="none" xmlns="http://www.w3.org/2000/svg">
<path fill-rule="evenodd" clip-rule="evenodd" d="M3 10C3 5.02944 7.02944 1 12 1C16.9706 1 21 5.02944 21 10C21 13.6785 18.9393 15.6862 17.0176 17.298C16.8145 17.4684 16.6153 17.6333 16.4208 17.7943C14.7005 19.2182 13.3531 20.3335 12.9806 22.1961C12.8871 22.6635 12.4767 23 12 23C11.5233 23 11.1129 22.6635 11.0194 22.1961C10.6469 20.3335 9.29947 19.2182 7.57915 17.7943C7.38469 17.6333 7.18547 17.4684 6.98236 17.298C5.06069 15.6862 3 13.6785 3 10Z" fill="#FA4D56"/>
<path d="M10.75 7.5H13.25M10.75 9.5H13.25M10.75 11.5H13.25M15 14.5V7.1C15 6.53995 15 6.25992 14.891 6.04601C14.7951 5.85785 14.6422 5.70487 14.454 5.60899C14.2401 5.5 13.9601 5.5 13.4 5.5H10.6C10.0399 5.5 9.75992 5.5 9.54601 5.60899C9.35785 5.70487 9.20487 5.85785 9.10899 6.04601C9 6.25992 9 6.53995 9 7.1V14.5M16 14.5H8" stroke="#F4F4F4" stroke-linecap="round" stroke-linejoin="round"/>
</svg>
