<svg width="24" height="24" viewBox="0 0 24 24" fill="none" xmlns="http://www.w3.org/2000/svg">
<path fill-rule="evenodd" clip-rule="evenodd" d="M3 10C3 5.02944 7.02944 1 12 1C16.9706 1 21 5.02944 21 10C21 13.6785 18.9393 15.6862 17.0176 17.298C16.8145 17.4684 16.6153 17.6333 16.4208 17.7943C14.7005 19.2182 13.3531 20.3335 12.9806 22.1961C12.8871 22.6635 12.4767 23 12 23C11.5233 23 11.1129 22.6635 11.0194 22.1961C10.6469 20.3335 9.29947 19.2182 7.57915 17.7943C7.38469 17.6333 7.18547 17.4684 6.98236 17.298C5.06069 15.6862 3 13.6785 3 10Z" fill="#DA1E28"/>
<g clip-path="url(#clip0_901_13226)">
<path d="M14.8724 5.40625C15.3547 4.90801 16.1518 4.90156 16.6421 5.39194C17.1191 5.86887 17.1279 6.63936 16.6621 7.12716L15.2728 8.58204C15.1639 8.69608 15.1094 8.7531 15.0759 8.81988C15.0462 8.87899 15.0285 8.94342 15.0239 9.00941C15.0187 9.08397 15.0364 9.16079 15.0718 9.31443L15.9358 13.0582C15.9722 13.2159 15.9904 13.2948 15.9845 13.371C15.9793 13.4386 15.9605 13.5043 15.9291 13.5643C15.8936 13.6321 15.8364 13.6893 15.722 13.8038L15.5366 13.9892C15.2335 14.2922 15.082 14.4438 14.9269 14.4712C14.7914 14.4952 14.6521 14.4623 14.5417 14.3803C14.4153 14.2864 14.3475 14.0831 14.212 13.6765L13.2071 10.6618L11.5344 12.3345C11.4346 12.4343 11.3846 12.4842 11.3513 12.543C11.3217 12.5951 11.3017 12.6521 11.2922 12.7112C11.2816 12.778 11.2894 12.8482 11.305 12.9885L11.3968 13.8152C11.4124 13.9555 11.4202 14.0257 11.4096 14.0925C11.4002 14.1516 11.3802 14.2086 11.3506 14.2607C11.3172 14.3195 11.2673 14.3694 11.1674 14.4692L11.0687 14.568C10.8321 14.8045 10.7139 14.9228 10.5825 14.957C10.4672 14.9871 10.345 14.975 10.2378 14.9229C10.1157 14.8636 10.0229 14.7244 9.83734 14.4461L9.05318 13.2698C9.02003 13.2201 9.00346 13.1952 8.98422 13.1727C8.96712 13.1527 8.94847 13.134 8.92844 13.1169C8.90589 13.0977 8.88103 13.0811 8.8313 13.0479L7.65506 12.2638C7.37674 12.0782 7.23758 11.9855 7.17822 11.8633C7.12615 11.7562 7.11405 11.6339 7.14409 11.5187C7.17834 11.3873 7.29661 11.269 7.53314 11.0325L7.63189 10.9337C7.73173 10.8339 7.78165 10.7839 7.84044 10.7505C7.89252 10.721 7.9495 10.701 8.00865 10.6915C8.07542 10.6809 8.14558 10.6887 8.28592 10.7043L9.11261 10.7961C9.25295 10.8117 9.32312 10.8195 9.38988 10.8089C9.44903 10.7994 9.50601 10.7795 9.55809 10.7499C9.61688 10.7165 9.6668 10.6666 9.76664 10.5667L11.4393 8.89405L8.42467 7.88917C8.01805 7.75364 7.81474 7.68587 7.72085 7.55941C7.63886 7.44899 7.60597 7.30968 7.62992 7.17425C7.65735 7.01915 7.80889 6.86761 8.11196 6.56454L8.29735 6.37916C8.41179 6.26471 8.46902 6.20749 8.53681 6.17204C8.59682 6.14067 8.66257 6.12181 8.73008 6.11661C8.80636 6.11074 8.88521 6.12894 9.04292 6.16533L12.7725 7.026C12.9275 7.06176 13.005 7.07964 13.0798 7.07432C13.152 7.06919 13.2223 7.04842 13.2857 7.01347C13.3514 6.97726 13.4067 6.92012 13.5173 6.80586L14.8724 5.40625Z" stroke="white" stroke-linecap="round" stroke-linejoin="round"/>
</g>
<defs>
<clipPath id="clip0_901_13226">
<rect width="12" height="12" fill="white" transform="translate(6 4)"/>
</clipPath>
</defs>
</svg>
