<svg width="24" height="24" viewBox="0 0 24 24" fill="none" xmlns="http://www.w3.org/2000/svg">
<path fill-rule="evenodd" clip-rule="evenodd" d="M3 10C3 5.02944 7.02944 1 12 1C16.9706 1 21 5.02944 21 10C21 13.6785 18.9393 15.6862 17.0176 17.298C16.8145 17.4684 16.6153 17.6333 16.4208 17.7943C14.7005 19.2182 13.3531 20.3335 12.9806 22.1961C12.8871 22.6635 12.4767 23 12 23C11.5233 23 11.1129 22.6635 11.0194 22.1961C10.6469 20.3335 9.29947 19.2182 7.57915 17.7943C7.38469 17.6333 7.18547 17.4684 6.98236 17.298C5.06069 15.6862 3 13.6785 3 10Z" fill="#FF832B"/>
<path d="M14.1214 7.87854C15.293 9.05011 15.293 10.9496 14.1214 12.1212M9.87879 12.1212C8.70722 10.9496 8.70722 9.05011 9.87879 7.87854M8.46447 13.5354C6.51184 11.5828 6.51184 8.41698 8.46447 6.46436M15.5358 6.46436C17.4884 8.41698 17.4884 11.5828 15.5358 13.5354M12.0001 10.9999C12.5524 10.9999 13.0001 10.5522 13.0001 9.99988C13.0001 9.44759 12.5524 8.99988 12.0001 8.99988C11.4478 8.99988 11.0001 9.44759 11.0001 9.99988C11.0001 10.5522 11.4478 10.9999 12.0001 10.9999ZM12.0001 10.9999V15.4999" stroke="white" stroke-linecap="round" stroke-linejoin="round"/>
</svg>
