<svg width="24" height="24" viewBox="0 0 24 24" fill="none" xmlns="http://www.w3.org/2000/svg">
<path fill-rule="evenodd" clip-rule="evenodd" d="M3 10C3 5.02944 7.02944 1 12 1C16.9706 1 21 5.02944 21 10C21 13.6785 18.9393 15.6862 17.0176 17.298C16.8145 17.4684 16.6153 17.6333 16.4208 17.7943C14.7005 19.2182 13.3531 20.3335 12.9806 22.1961C12.8871 22.6635 12.4767 23 12 23C11.5233 23 11.1129 22.6635 11.0194 22.1961C10.6469 20.3335 9.29947 19.2182 7.57915 17.7943C7.38469 17.6333 7.18547 17.4684 6.98236 17.298C5.06069 15.6862 3 13.6785 3 10Z" fill="#24A148"/>
<path d="M14 10.6872C15.7659 11.0344 17 11.8274 17 12.75C17 13.9926 14.7614 15 12 15C9.23858 15 7 13.9926 7 12.75C7 11.8274 8.2341 11.0344 10 10.6872M12 12.5V5.5L14.6589 7.13622C14.8528 7.25557 14.9498 7.31525 14.9807 7.39043C15.0077 7.456 15.0056 7.52995 14.9748 7.59386C14.9396 7.66713 14.8394 7.72111 14.6389 7.82907L12 9.25" stroke="#F4F4F4" stroke-linecap="round" stroke-linejoin="round"/>
</svg>
