<svg width="24" height="24" viewBox="0 0 24 24" fill="none" xmlns="http://www.w3.org/2000/svg">
<path fill-rule="evenodd" clip-rule="evenodd" d="M3 10C3 5.02944 7.02944 1 12 1C16.9706 1 21 5.02944 21 10C21 13.6785 18.9393 15.6862 17.0176 17.298C16.8145 17.4684 16.6153 17.6333 16.4208 17.7943C14.7005 19.2182 13.3531 20.3335 12.9806 22.1961C12.8871 22.6635 12.4767 23 12 23C11.5233 23 11.1129 22.6635 11.0194 22.1961C10.6469 20.3335 9.29947 19.2182 7.57915 17.7943C7.38469 17.6333 7.18547 17.4684 6.98236 17.298C5.06069 15.6862 3 13.6785 3 10Z" fill="#0043CE"/>
<g clip-path="url(#clip0_901_13205)">
<path d="M13.0248 7C13.5132 7.09528 13.962 7.33413 14.3139 7.68597C14.6657 8.03781 14.9045 8.48663 14.9998 8.975M13.0248 5C14.0395 5.11272 14.9856 5.56709 15.708 6.2885C16.4303 7.00992 16.8858 7.9555 16.9998 8.97M11.1133 10.9315C10.5125 10.3307 10.0381 9.65142 9.69014 8.92661C9.6602 8.86427 9.64524 8.8331 9.63374 8.79365C9.59288 8.65347 9.62223 8.48135 9.70723 8.36263C9.73115 8.32922 9.75973 8.30065 9.81689 8.24349C9.99169 8.06869 10.0791 7.98129 10.1362 7.8934C10.3517 7.56195 10.3517 7.13466 10.1362 6.80322C10.0791 6.71533 9.99169 6.62793 9.81689 6.45312L9.71945 6.35569C9.45373 6.08997 9.32087 5.95711 9.17818 5.88493C8.8944 5.7414 8.55927 5.7414 8.27549 5.88493C8.1328 5.95711 7.99994 6.08997 7.73422 6.35569L7.6554 6.4345C7.39059 6.69932 7.25818 6.83172 7.15706 7.01174C7.04485 7.21149 6.96417 7.52174 6.96485 7.75085C6.96546 7.95732 7.00551 8.09843 7.08562 8.38066C7.5161 9.89735 8.32834 11.3285 9.52233 12.5225C10.7163 13.7165 12.1475 14.5288 13.6642 14.9592C13.9464 15.0393 14.0875 15.0794 14.294 15.08C14.5231 15.0807 14.8334 15 15.0331 14.8878C15.2131 14.7867 15.3455 14.6543 15.6103 14.3895L15.6892 14.3106C15.9549 14.0449 16.0877 13.9121 16.1599 13.7694C16.3035 13.4856 16.3035 13.1505 16.1599 12.8667C16.0877 12.724 15.9549 12.5911 15.6892 12.3254L15.5917 12.228C15.4169 12.0532 15.3295 11.9658 15.2416 11.9086C14.9102 11.6931 14.4829 11.6931 14.1515 11.9086C14.0636 11.9658 13.9762 12.0532 13.8014 12.228C13.7442 12.2851 13.7156 12.3137 13.6822 12.3376C13.5635 12.4226 13.3914 12.452 13.2512 12.4111C13.2118 12.3996 13.1806 12.3847 13.1182 12.3547C12.3934 12.0067 11.7141 11.5323 11.1133 10.9315Z" stroke="black" stroke-linecap="round" stroke-linejoin="round"/>
</g>
<g clip-path="url(#clip1_901_13205)">
<path d="M13.0248 7C13.5132 7.09528 13.962 7.33413 14.3139 7.68597C14.6657 8.03781 14.9045 8.48663 14.9998 8.975M13.0248 5C14.0395 5.11272 14.9856 5.56709 15.708 6.2885C16.4303 7.00992 16.8858 7.9555 16.9998 8.97M11.1133 10.9315C10.5125 10.3307 10.0381 9.65142 9.69014 8.92661C9.6602 8.86427 9.64524 8.8331 9.63374 8.79365C9.59288 8.65347 9.62223 8.48135 9.70723 8.36263C9.73115 8.32922 9.75973 8.30065 9.81689 8.24349C9.99169 8.06869 10.0791 7.98129 10.1362 7.8934C10.3517 7.56195 10.3517 7.13466 10.1362 6.80322C10.0791 6.71533 9.99169 6.62793 9.81689 6.45312L9.71945 6.35569C9.45373 6.08997 9.32087 5.95711 9.17818 5.88493C8.8944 5.7414 8.55927 5.7414 8.27549 5.88493C8.1328 5.95711 7.99994 6.08997 7.73422 6.35569L7.6554 6.4345C7.39059 6.69932 7.25818 6.83172 7.15706 7.01174C7.04485 7.21149 6.96417 7.52174 6.96485 7.75085C6.96546 7.95732 7.00551 8.09843 7.08562 8.38066C7.5161 9.89735 8.32834 11.3285 9.52233 12.5225C10.7163 13.7165 12.1475 14.5288 13.6642 14.9592C13.9464 15.0393 14.0875 15.0794 14.294 15.08C14.5231 15.0807 14.8334 15 15.0331 14.8878C15.2131 14.7867 15.3455 14.6543 15.6103 14.3895L15.6892 14.3106C15.9549 14.0449 16.0877 13.9121 16.1599 13.7694C16.3035 13.4856 16.3035 13.1505 16.1599 12.8667C16.0877 12.724 15.9549 12.5911 15.6892 12.3254L15.5917 12.228C15.4169 12.0532 15.3295 11.9658 15.2416 11.9086C14.9102 11.6931 14.4829 11.6931 14.1515 11.9086C14.0636 11.9658 13.9762 12.0532 13.8014 12.228C13.7442 12.2851 13.7156 12.3137 13.6822 12.3376C13.5635 12.4226 13.3914 12.452 13.2512 12.4111C13.2118 12.3996 13.1806 12.3847 13.1182 12.3547C12.3934 12.0067 11.7141 11.5323 11.1133 10.9315Z" stroke="white" stroke-linecap="round" stroke-linejoin="round"/>
</g>
<defs>
<clipPath id="clip0_901_13205">
<rect width="12" height="12" fill="white" transform="translate(6 4)"/>
</clipPath>
<clipPath id="clip1_901_13205">
<rect width="12" height="12" fill="white" transform="translate(6 4)"/>
</clipPath>
</defs>
</svg>
