<svg width="24" height="24" viewBox="0 0 24 24" fill="none" xmlns="http://www.w3.org/2000/svg">
<path fill-rule="evenodd" clip-rule="evenodd" d="M3 10C3 5.02944 7.02944 1 12 1C16.9706 1 21 5.02944 21 10C21 13.6785 18.9393 15.6862 17.0176 17.298C16.8145 17.4684 16.6153 17.6333 16.4208 17.7943C14.7005 19.2182 13.3531 20.3335 12.9806 22.1961C12.8871 22.6635 12.4767 23 12 23C11.5233 23 11.1129 22.6635 11.0194 22.1961C10.6469 20.3335 9.29947 19.2182 7.57915 17.7943C7.38469 17.6333 7.18547 17.4684 6.98236 17.298C5.06069 15.6862 3 13.6785 3 10Z" fill="#A56EFF"/>
<g clip-path="url(#clip0_901_13216)">
<path d="M7.70673 10.3722C7.40905 10.2565 7.26022 10.1986 7.21676 10.1152C7.1791 10.0429 7.17904 9.95677 7.21663 9.88443C7.25998 9.80098 7.40875 9.74292 7.70629 9.62681L16.1502 6.33164C16.4188 6.22682 16.553 6.17441 16.6389 6.20308C16.7134 6.22798 16.7719 6.28646 16.7968 6.36099C16.8254 6.4468 16.773 6.5811 16.6682 6.84969L13.373 15.2936C13.2569 15.5911 13.1989 15.7399 13.1154 15.7832C13.0431 15.8208 12.957 15.8208 12.8847 15.7831C12.8012 15.7396 12.7434 15.5908 12.6276 15.2931L11.3136 11.9141C11.2901 11.8537 11.2783 11.8235 11.2602 11.798C11.2441 11.7755 11.2244 11.7558 11.2018 11.7397C11.1764 11.7215 11.1462 11.7098 11.0857 11.6863L7.70673 10.3722Z" stroke="white" stroke-linecap="round" stroke-linejoin="round"/>
</g>
<defs>
<clipPath id="clip0_901_13216">
<rect width="12" height="12" fill="white" transform="translate(6 5)"/>
</clipPath>
</defs>
</svg>
